<svg width="65" height="65" viewBox="0 0 65 65" fill="none" xmlns="http://www.w3.org/2000/svg">
<path d="M28.4375 43.4972L18.2812 33.3389L21.1514 30.4688L28.4375 37.7528L43.8445 22.3438L46.7188 25.218L28.4375 43.4972Z" fill="black"/>
<path d="M32.5 4.0625C26.8756 4.0625 21.3775 5.73033 16.701 8.85508C12.0245 11.9798 8.37956 16.4212 6.22719 21.6174C4.07482 26.8137 3.51166 32.5315 4.60893 38.0479C5.7062 43.5642 8.41461 48.6313 12.3917 52.6083C16.3687 56.5854 21.4358 59.2938 26.9521 60.3911C32.4685 61.4883 38.1863 60.9252 43.3826 58.7728C48.5788 56.6205 53.0202 52.9756 56.1449 48.299C59.2697 43.6225 60.9375 38.1244 60.9375 32.5C60.9375 24.9579 57.9414 17.7247 52.6084 12.3917C47.2753 7.05858 40.0421 4.0625 32.5 4.0625ZM32.5 56.875C27.6791 56.875 22.9664 55.4454 18.958 52.7671C14.9495 50.0887 11.8253 46.2819 9.98045 41.8279C8.13556 37.374 7.65286 32.473 8.59337 27.7447C9.53389 23.0164 11.8554 18.6732 15.2643 15.2643C18.6732 11.8554 23.0164 9.53387 27.7447 8.59336C32.473 7.65284 37.374 8.13555 41.8279 9.98044C46.2819 11.8253 50.0887 14.9495 52.7671 18.958C55.4454 22.9664 56.875 27.6791 56.875 32.5C56.875 38.9647 54.3069 45.1645 49.7357 49.7357C45.1645 54.3069 38.9647 56.875 32.5 56.875Z" fill="black"/>
</svg>
