<svg width="122" height="28" viewBox="0 0 122 28" fill="none" xmlns="http://www.w3.org/2000/svg">
<path d="M15.56 21.132H15.92V27H0.152V26.712H2.888V1.548H0.152V1.26H9.152V1.548H6.416V26.712H11.672C12.512 26.712 13.22 26.472 13.796 25.992C14.372 25.488 14.804 24.816 15.092 23.976C15.404 23.112 15.56 22.164 15.56 21.132ZM34.5925 19.476C34.5925 24.732 32.3605 27.36 27.8965 27.36C26.1205 27.36 24.6325 27.108 23.4325 26.604C22.2325 26.076 21.3325 25.248 20.7325 24.12C20.1565 22.968 19.8685 21.48 19.8685 19.656V1.548H17.1325V1.26H26.1325V1.548H23.3965V19.656C23.3965 21.336 23.6005 22.692 24.0085 23.724C24.4165 24.756 25.0165 25.512 25.8085 25.992C26.6245 26.448 27.6205 26.676 28.7965 26.676C30.4765 26.676 31.7965 26.088 32.7565 24.912C33.7405 23.712 34.2325 21.9 34.2325 19.476V3.312C34.2325 2.784 34.1245 2.4 33.9085 2.16C33.7165 1.92 33.3805 1.764 32.9005 1.692C32.4445 1.596 31.8085 1.548 30.9925 1.548V1.26H37.4725V1.548C36.7525 1.548 36.1765 1.596 35.7445 1.692C35.3365 1.764 35.0365 1.92 34.8445 2.16C34.6765 2.4 34.5925 2.784 34.5925 3.312V19.476ZM45.7575 1.26L51.1575 16.056L56.2695 1.26H62.7135V1.548H59.9775V26.712H62.6775V27H53.6775V26.712H56.4495V2.016L49.8615 21.42H49.4655L42.5175 1.908V24.768C42.5175 25.44 42.7095 25.932 43.0935 26.244C43.4775 26.556 44.2455 26.712 45.3975 26.712V27H39.2415V26.712C40.3695 26.712 41.1375 26.556 41.5455 26.244C41.9535 25.932 42.1575 25.44 42.1575 24.768V1.548H39.2415V1.26H45.7575ZM80.4233 21.132H80.7833V27H65.0153V26.712H67.7513V1.548H65.0153V1.26H80.6033V7.128H80.2433C80.2433 6.192 80.1233 5.304 79.8833 4.464C79.6433 3.6 79.2593 2.904 78.7313 2.376C78.2273 1.824 77.5553 1.548 76.7153 1.548H71.2793V14.148H73.9073C74.7713 14.148 75.5033 13.992 76.1033 13.68C76.7033 13.344 77.3033 12.9 77.9033 12.348V16.236C77.2793 15.612 76.6673 15.156 76.0673 14.868C75.4913 14.58 74.7713 14.436 73.9073 14.436H71.2793V26.712H76.8953C77.7353 26.712 78.4073 26.448 78.9113 25.92C79.4393 25.368 79.8233 24.66 80.0633 23.796C80.3033 22.932 80.4233 22.044 80.4233 21.132ZM83.1911 1.548V1.26H91.7951C93.7391 1.26 95.3351 1.536 96.5831 2.088C97.8311 2.64 98.7431 3.396 99.3191 4.356C99.9191 5.316 100.219 6.408 100.219 7.632C100.219 8.904 99.9431 9.996 99.3911 10.908C98.8631 11.82 98.1431 12.54 97.2311 13.068C96.3431 13.572 95.3591 13.908 94.2791 14.076C95.2151 14.292 96.0071 14.7 96.6551 15.3C97.3271 15.876 97.9031 16.86 98.3831 18.252L99.8231 22.32C100.255 23.592 100.651 24.54 101.011 25.164C101.395 25.788 101.815 26.196 102.271 26.388C102.727 26.58 103.279 26.688 103.927 26.712V27H101.803C100.891 27 100.099 26.892 99.4271 26.676C98.7551 26.46 98.1791 26.088 97.6991 25.56C97.2191 25.008 96.7871 24.216 96.4031 23.184L94.4951 17.388C94.1591 16.452 93.7391 15.708 93.2351 15.156C92.7311 14.604 91.9511 14.328 90.8951 14.328V14.148H91.9751C93.1031 14.148 94.0031 13.872 94.6751 13.32C95.3471 12.744 95.8391 11.976 96.1511 11.016C96.4631 10.032 96.6191 8.952 96.6191 7.776C96.6191 6.984 96.5591 6.216 96.4391 5.472C96.3191 4.728 96.0911 4.068 95.7551 3.492C95.4191 2.916 94.9271 2.46 94.2791 2.124C93.6551 1.764 92.8271 1.584 91.7951 1.584H89.4551V26.712H92.1911V27H83.1911V26.712H85.9271V1.548H83.1911ZM121.779 14.004C121.779 18.612 121.047 21.996 119.583 24.156C118.119 26.292 115.947 27.36 113.067 27.36C110.187 27.36 108.015 26.292 106.551 24.156C105.087 21.996 104.367 18.612 104.391 14.004C104.391 9.468 105.123 6.156 106.587 4.068C108.051 1.956 110.211 0.899999 113.067 0.899999C115.947 0.899999 118.119 1.956 119.583 4.068C121.047 6.156 121.779 9.468 121.779 14.004ZM118.071 14.004C118.071 11.604 117.975 9.576 117.783 7.92C117.615 6.264 117.339 4.944 116.955 3.96C116.571 2.976 116.055 2.268 115.407 1.836C114.759 1.404 113.967 1.188 113.031 1.188C112.095 1.188 111.315 1.404 110.691 1.836C110.067 2.268 109.551 2.976 109.143 3.96C108.759 4.944 108.483 6.264 108.315 7.92C108.147 9.576 108.063 11.604 108.063 14.004C108.063 16.476 108.147 18.552 108.315 20.232C108.507 21.912 108.795 23.256 109.179 24.264C109.587 25.248 110.103 25.968 110.727 26.424C111.351 26.856 112.131 27.072 113.067 27.072C114.003 27.072 114.783 26.856 115.407 26.424C116.055 25.968 116.571 25.248 116.955 24.264C117.339 23.256 117.615 21.912 117.783 20.232C117.975 18.552 118.071 16.476 118.071 14.004Z" fill="black"/>
</svg>
