<svg width="65" height="65" viewBox="0 0 65 65" fill="none" xmlns="http://www.w3.org/2000/svg">
<path d="M7.44802 16.7023C7.44802 15.4565 8.3824 14.4436 9.53615 14.4436H16.7539C18.1866 14.4029 19.4514 13.4198 19.9389 11.9627L20.0201 11.7054L20.3316 10.6979C20.5211 10.0804 20.6864 9.54148 20.9193 9.0594C21.8347 7.15815 23.5301 5.83919 25.4882 5.50065C25.9866 5.41669 26.5093 5.41669 27.1132 5.41669H36.5328C37.1368 5.41669 37.6622 5.41669 38.1578 5.50065C40.1159 5.83919 41.8141 7.15815 42.7268 9.0594C42.9597 9.54148 43.1249 10.0804 43.3145 10.6979L43.6259 11.7054L43.7072 11.9627C44.1947 13.4198 45.7114 14.4056 47.1468 14.4436H54.1072C55.2636 14.4436 56.198 15.4538 56.198 16.7023C56.198 17.9509 55.2636 18.9584 54.1099 18.9584H9.53344C8.37969 18.9584 7.44802 17.9481 7.44802 16.7023ZM31.4357 59.5834H33.5672C40.8986 59.5834 44.563 59.5834 46.9491 57.2461C49.3324 54.9061 49.5761 51.0711 50.0636 43.4038L50.7678 32.3511C51.0332 28.1884 51.1659 26.1084 49.9689 24.7894C48.7718 23.4704 46.7541 23.4704 42.7132 23.4704H22.2897C18.2516 23.4704 16.2311 23.4704 15.0341 24.7894C13.837 26.1084 13.9724 28.1884 14.2351 32.3511L14.9393 43.4011C15.4268 51.0738 15.6705 54.9061 18.0539 57.2461C20.4372 59.5861 24.1043 59.5834 31.4357 59.5834Z" fill="black"/>
</svg>
